<svg width="18" height="10" viewBox="0 0 18 10" fill="none" xmlns="http://www.w3.org/2000/svg">
<path d="M17.0306 1.53055L9.53061 9.03055C9.46096 9.10029 9.37824 9.15561 9.2872 9.19335C9.19615 9.23109 9.09855 9.25052 8.99999 9.25052C8.90143 9.25052 8.80383 9.23109 8.71278 9.19335C8.62174 9.15561 8.53902 9.10029 8.46936 9.03055L0.969365 1.53055C0.828634 1.38982 0.749573 1.19895 0.749573 0.999929C0.749573 0.800906 0.828634 0.610034 0.969365 0.469303C1.1101 0.328573 1.30097 0.249512 1.49999 0.249512C1.69901 0.249512 1.88988 0.328573 2.03061 0.469303L8.99999 7.43962L15.9694 0.469303C16.039 0.399621 16.1218 0.344345 16.2128 0.306633C16.3039 0.268921 16.4014 0.249512 16.5 0.249512C16.5985 0.249512 16.6961 0.268921 16.7872 0.306633C16.8782 0.344345 16.9609 0.399621 17.0306 0.469303C17.1003 0.538986 17.1556 0.621712 17.1933 0.712756C17.231 0.803801 17.2504 0.901383 17.2504 0.999929C17.2504 1.09847 17.231 1.19606 17.1933 1.2871C17.1556 1.37815 17.1003 1.46087 17.0306 1.53055Z" fill="#4A5568"/>
</svg>
