<svg width="16" height="16" viewBox="0 0 16 16" fill="none" xmlns="http://www.w3.org/2000/svg">
<path d="M13.8838 3.67938C13.8368 3.62321 13.7781 3.57804 13.7118 3.54704C13.6455 3.51605 13.5732 3.49999 13.5 3.5H3.4175L3.11188 1.82125C3.07001 1.59083 2.94861 1.38242 2.76884 1.23234C2.58906 1.08226 2.36231 1.00003 2.12813 1H1C0.867392 1 0.740215 1.05268 0.646447 1.14645C0.552678 1.24021 0.5 1.36739 0.5 1.5C0.5 1.63261 0.552678 1.75979 0.646447 1.85355C0.740215 1.94732 0.867392 2 1 2H2.125L3.7225 10.7681C3.76956 11.0282 3.88448 11.2712 4.05563 11.4725C3.8194 11.6931 3.64891 11.9749 3.56304 12.2865C3.47717 12.5981 3.47928 12.9274 3.56914 13.2379C3.65901 13.5484 3.83311 13.828 4.07214 14.0455C4.31118 14.2631 4.6058 14.4103 4.92335 14.4706C5.2409 14.531 5.56896 14.5022 5.87116 14.3875C6.17336 14.2728 6.43788 14.0767 6.6354 13.8208C6.83292 13.5649 6.95572 13.2594 6.99018 12.938C7.02464 12.6166 6.96941 12.2919 6.83063 12H9.66938C9.55752 12.2342 9.49963 12.4905 9.5 12.75C9.5 13.0961 9.60264 13.4345 9.79493 13.7222C9.98722 14.01 10.2605 14.2343 10.5803 14.3668C10.9001 14.4992 11.2519 14.5339 11.5914 14.4664C11.9309 14.3989 12.2427 14.2322 12.4874 13.9874C12.7322 13.7427 12.8989 13.4309 12.9664 13.0914C13.0339 12.7519 12.9992 12.4001 12.8668 12.0803C12.7343 11.7605 12.51 11.4872 12.2222 11.2949C11.9345 11.1026 11.5961 11 11.25 11H5.19813C5.08103 11 4.96766 10.9589 4.87777 10.8838C4.78788 10.8088 4.72718 10.7046 4.70625 10.5894L4.50813 9.5H11.7581C12.1094 9.49995 12.4495 9.37661 12.7192 9.15149C12.9889 8.92637 13.171 8.61375 13.2338 8.26813L13.9938 4.08938C14.0066 4.01715 14.0034 3.94298 13.9844 3.87212C13.9654 3.80127 13.931 3.73546 13.8838 3.67938ZM6 12.75C6 12.8983 5.95601 13.0433 5.8736 13.1667C5.79119 13.29 5.67406 13.3861 5.53701 13.4429C5.39997 13.4997 5.24917 13.5145 5.10368 13.4856C4.9582 13.4567 4.82456 13.3852 4.71967 13.2803C4.61478 13.1754 4.54335 13.0418 4.51441 12.8963C4.48547 12.7508 4.50033 12.6 4.55709 12.463C4.61386 12.3259 4.70999 12.2088 4.83332 12.1264C4.95666 12.044 5.10166 12 5.25 12C5.44891 12 5.63968 12.079 5.78033 12.2197C5.92098 12.3603 6 12.5511 6 12.75ZM12 12.75C12 12.8983 11.956 13.0433 11.8736 13.1667C11.7912 13.29 11.6741 13.3861 11.537 13.4429C11.4 13.4997 11.2492 13.5145 11.1037 13.4856C10.9582 13.4567 10.8246 13.3852 10.7197 13.2803C10.6148 13.1754 10.5434 13.0418 10.5144 12.8963C10.4855 12.7508 10.5003 12.6 10.5571 12.463C10.6139 12.3259 10.71 12.2088 10.8333 12.1264C10.9567 12.044 11.1017 12 11.25 12C11.4489 12 11.6397 12.079 11.7803 12.2197C11.921 12.3603 12 12.5511 12 12.75ZM12.25 8.08938C12.229 8.2049 12.168 8.30936 12.0778 8.38443C11.9875 8.45951 11.8737 8.50042 11.7563 8.5H4.32625L3.59938 4.5H12.9006L12.25 8.08938Z" fill="#4A5568"/>
</svg>
